# Blender v2.78 (sub 0) OBJ File: 'Ugly axe.blend'
# www.blender.org
mtllib Axe.mtl
o Cylinder
v -0.192986 1.899141 0.438157
v 0.467194 1.899562 0.176486
v 0.192985 1.899142 -0.457438
v 0.098383 -1.899142 0.465738
v -0.494605 -1.899141 0.084918
v -0.098382 -1.899141 -0.485020
v 0.098383 1.899142 -0.485020
v -0.192984 1.899142 -0.457438
v 0.000000 1.899142 -0.494332
v -0.098382 1.899142 -0.485020
v -0.280170 1.899142 -0.412647
v -0.465907 1.899141 -0.195124
v -0.356590 1.899141 -0.352370
v -0.419305 1.899141 -0.278921
v -0.494605 1.899141 -0.104200
v -0.504295 1.899141 -0.009641
v -0.494645 1.899155 0.084938
v -0.467194 1.899562 0.176486
v -0.420838 1.899643 0.260406
v -0.356717 1.899183 0.333152
v -0.280172 1.899141 0.393366
v -0.098384 1.899141 0.465739
v 0.192985 1.899141 0.438157
v 0.000000 1.899141 0.475052
v 0.098383 1.899141 0.465739
v 0.280171 1.899141 0.393366
v 0.356718 1.899183 0.333152
v 0.420838 1.899643 0.260406
v 0.494645 1.899155 0.084938
v 0.504295 1.899141 -0.009640
v 0.494605 1.899141 -0.104199
v 0.465908 1.899141 -0.195124
v 0.419306 1.899141 -0.278921
v 0.356591 1.899141 -0.352370
v 0.280171 1.899142 -0.412647
v 0.000000 -1.899141 -0.494333
v 0.098383 -1.899141 -0.485020
v 0.192985 -1.899141 -0.457438
v 0.280171 -1.899141 -0.412648
v 0.356591 -1.899141 -0.352370
v 0.419306 -1.899141 -0.278921
v 0.465908 -1.899141 -0.195124
v 0.494605 -1.899141 -0.104200
v 0.504295 -1.899141 -0.009641
v 0.419306 -1.899141 0.259639
v 0.494605 -1.899141 0.084918
v 0.465908 -1.899141 0.175842
v 0.356591 -1.899141 0.333088
v 0.280171 -1.899142 0.393366
v 0.192985 -1.899142 0.438156
v 0.000000 -1.899142 0.475051
v -0.098384 -1.899142 0.465738
v -0.192986 -1.899142 0.438156
v -0.280172 -1.899142 0.393366
v -0.356590 -1.899141 0.333088
v -0.419306 -1.899141 0.259639
v -0.465908 -1.899141 0.175842
v -0.504295 -1.899141 -0.009642
v -0.494605 -1.899141 -0.104200
v -0.465907 -1.899141 -0.195125
v -0.419305 -1.899141 -0.278922
v -0.356590 -1.899141 -0.352370
v -0.280170 -1.899141 -0.412648
v -0.192984 -1.899141 -0.457438
v 0.000000 0.000000 -0.494333
v 0.000000 -0.949571 -0.494333
v 0.000000 0.949571 -0.494333
v 0.907484 1.781191 -1.197929
v 1.026739 3.781237 -1.113727
v 0.304374 1.821459 0.734842
v 0.486088 3.315986 1.173976
v -1.263983 1.781237 -1.133502
v -1.211714 3.831486 -1.042974
v -0.323959 1.858827 0.476322
v -0.471478 3.353968 0.987299
v 0.536838 1.781237 -0.154066
v 0.878318 2.777357 -1.067789
v 0.741725 3.577095 0.000878
v 0.335551 2.623406 1.171667
v -0.032036 1.781237 0.749109
v 0.026379 3.493957 0.957026
v -0.523461 2.607671 0.950032
v -0.736898 1.781237 -0.139799
v -0.890323 3.534680 0.004574
v -1.177107 2.781369 -1.047679
v -0.168024 1.781237 -1.042974
v -0.168024 3.781237 -1.042974
v -0.071673 3.752652 -0.027601
v -0.100030 1.789868 -0.132688
v -1.008142 2.699081 -0.019277
v -0.002828 2.637597 2.188921
v 0.680088 2.684496 0.015844
v 0.722133 1.781237 -0.675975
v 0.929358 3.281237 -1.078351
v 0.654461 3.475427 0.603398
v 0.426368 2.176552 0.991437
v 0.176810 1.801348 0.741975
v -0.203475 3.408314 0.957026
v -0.438401 2.193330 0.833466
v -0.597786 1.820066 0.322721
v -1.035963 3.675181 -0.524412
v -1.216004 2.281237 -1.088238
v -0.716004 1.781237 -1.088238
v 0.429358 3.781237 -1.078350
v 0.461261 1.801353 0.290395
v 0.869702 2.281237 -1.120428
v 0.860840 3.663609 -0.568883
v 0.404805 2.989338 1.180952
v -0.245354 1.820066 0.652544
v 0.256234 3.404971 1.065501
v -0.446798 2.989678 0.934144
v -1.000441 1.781237 -0.636650
v -0.715861 3.468864 0.507409
v -1.189869 3.306362 -1.042974
v 0.369702 1.781237 -1.120429
v -0.689869 3.806362 -1.042974
v -0.119582 3.801473 -0.529909
v -0.022952 3.687433 0.471908
v -0.454602 3.684463 -0.020440
v 0.310492 3.697737 -0.021919
v -0.134027 1.785553 -0.587831
v -0.066033 1.785553 0.308210
v 0.218404 1.785553 -0.143377
v -0.418464 1.785553 -0.136244
v -1.056297 2.741980 -0.529516
v -0.845002 2.634182 0.487131
v -0.926800 2.228161 -0.049859
v -0.945976 3.083401 -0.011658
v -0.191292 2.636550 1.526463
v 0.125050 2.637755 1.667757
v -0.017457 2.208039 1.469713
v 0.012630 3.068028 1.574282
v 0.686287 2.636954 0.613663
v 0.788571 2.738364 -0.551536
v 0.635886 2.240263 -0.106872
v 0.723265 3.102462 -0.052122
v 0.243067 2.978909 1.682804
v -0.295698 2.146059 0.880050
v 0.829091 3.207584 -0.560396
v 0.739942 2.262557 -0.616893
v 0.508484 2.217887 0.436124
v 0.209238 2.168801 1.241731
v -0.785658 3.017358 0.489253
v -0.711235 2.207771 0.421204
v -1.087000 2.256471 -0.557901
v -0.331909 1.802810 0.315466
v 0.197607 1.793451 0.299299
v 0.294053 1.783395 -0.631903
v 0.290819 3.569590 0.522731
v -0.338924 3.569726 0.470824
v -0.567462 3.762345 -0.526033
v 0.363042 3.706150 -0.555260
v -0.567234 1.783395 -0.612241
v -1.034891 3.193401 -0.536078
v -0.268220 3.062974 1.289985
v 0.640782 3.017000 0.586263
vt 0.5603 0.0386
vt 0.0416 0.4101
vt 0.4149 0.9485
vt 0.8754 0.2448
vt 0.8256 0.1722
vt 0.7592 0.1165
vt 0.2408 0.1004
vt 0.1743 0.1561
vt 0.1215 0.2287
vt 0.5217 0.9484
vt 0.6192 0.9292
vt 0.7592 0.8545
vt 0.8008 0.7955
vt 0.8692 0.6875
vt 0.9216 0.5979
vt 0.9563 0.5234
vt 0.9690 0.4742
vt 0.8630 0.2287
vt 0.8039 0.1529
vt 0.7220 0.0778
vt 0.6479 0.0574
vt 0.2253 0.1101
vt 0.1650 0.1690
vt 0.0465 0.6027
vt 0.0725 0.6913
vt 0.1236 0.7752
vt 0.1686 0.8408
vt 0.2370 0.8927
vt 0.3273 0.9362
vt 0.9563 0.3896
vt 0.3870 0.0354
vt 0.1091 0.2512
vt 0.7068 0.8846
vt 0.9216 0.2990
vt 0.4845 0.0387
vt 0.3025 0.0671
vt 0.0784 0.3119
vt 0.0345 0.5026
vt 0.4502 0.7133
vt 0.4077 0.6147
vt 0.4536 0.6106
vt 0.9244 0.1584
vt 0.9599 0.2180
vt 0.9157 0.2207
vt 0.9816 0.4822
vt 0.9324 0.5661
vt 0.9246 0.4792
vt 0.6977 0.3490
vt 0.6464 0.4213
vt 0.6232 0.3429
vt 0.0616 0.1881
vt 0.0988 0.0870
vt 0.1403 0.1633
vt 0.2911 0.1147
vt 0.1976 0.0591
vt 0.2819 0.0296
vt 0.3107 0.2829
vt 0.2404 0.2179
vt 0.3003 0.1998
vt 0.2174 0.3238
vt 0.1233 0.2615
vt 0.1818 0.2397
vt 0.4748 0.3420
vt 0.5523 0.4113
vt 0.4593 0.4213
vt 0.4961 0.1905
vt 0.5452 0.2624
vt 0.4903 0.2626
vt 0.6332 0.1905
vt 0.6000 0.2646
vt 0.5874 0.1904
vt 0.8068 0.4785
vt 0.8663 0.5605
vt 0.8034 0.5661
vt 0.8702 0.3076
vt 0.8101 0.3909
vt 0.8164 0.3097
vt 0.9623 0.3053
vt 0.9168 0.3923
vt 0.9163 0.3065
vt 0.6929 0.5265
vt 0.6557 0.5261
vt 0.6929 0.4789
vt 0.4961 0.5189
vt 0.5567 0.5425
vt 0.5538 0.5912
vt 0.4987 0.7120
vt 0.5508 0.6400
vt 0.5537 0.7293
vt 0.4965 0.8970
vt 0.5565 0.8187
vt 0.5567 0.9035
vt 0.4388 0.9022
vt 0.3958 0.8146
vt 0.4468 0.8161
vt 0.4996 0.6064
vt 0.2831 0.3767
vt 0.3247 0.4786
vt 0.2529 0.4079
vt 0.8716 0.2233
vt 0.8149 0.2183
vt 0.8809 0.1117
vt 0.8242 0.1066
vt 0.8902 0.0000
vt 0.7582 0.2132
vt 0.2945 0.5098
vt 0.2227 0.4391
vt 0.3663 0.5806
vt 0.4502 0.5230
vt 0.4926 0.4314
vt 0.4978 0.8175
vt 0.4952 0.9765
vt 0.4307 0.9883
vt 0.3810 0.9073
vt 0.6153 0.8199
vt 0.6169 0.9099
vt 0.5568 0.9883
vt 0.6184 1.0000
vt 0.6021 0.6736
vt 0.6087 0.7467
vt 0.5091 0.0423
vt 0.5380 0.1182
vt 0.5020 0.1184
vt 0.6114 0.6636
vt 0.6557 0.4785
vt 0.6929 0.4314
vt 0.6184 0.5257
vt 0.8689 0.3919
vt 0.7625 0.3117
vt 0.7514 0.3898
vt 0.7737 0.2336
vt 0.8226 0.2285
vt 0.7459 0.4808
vt 0.7405 0.5717
vt 0.5416 0.1903
vt 0.5748 0.1163
vt 0.6117 0.1143
vt 0.4507 0.1907
vt 0.4354 0.2629
vt 0.4660 0.1185
vt 0.4008 0.3471
vt 0.3663 0.4314
vt 0.5487 0.3369
vt 0.2617 0.2973
vt 0.1730 0.3503
vt 0.3597 0.2685
vt 0.3603 0.1817
vt 0.3592 0.3554
vt 0.3211 0.3660
vt 0.3633 0.0908
vt 0.3663 0.0000
vt 0.2190 0.1385
vt 0.6548 0.2667
vt 0.8676 0.4762
vt 0.9647 0.3927
vt 0.9330 0.0961
vt 0.3396 0.4184
vt 0.4018 0.7147
vt 0.3215 0.0393
vt 0.4892 0.0337
vt 0.6412 0.4786
vt 0.9679 0.2052
vt 0.9985 0.5717
vt 0.7405 0.4314
vt 0.0000 0.1148
vt 0.3663 1.0000
vt 0.5395 0.0000
vt 0.1630 0.9329
vt 0.0001 0.9523
vt 0.0025 0.7157
vt 0.0024 0.4790
vt 0.0012 0.2396
vt 0.3231 0.9363
vt 0.0001 0.0001
vt 0.1609 0.0218
vt 0.4842 0.9578
vt 0.6429 0.7393
vt 0.6447 0.9999
vt 0.6569 0.0241
vt 0.6490 0.2514
vt 0.1279 0.5000
vt 0.0625 1.0000
vt 0.0625 0.0000
vt 0.0654 1.0000
vt 0.0000 0.0000
vt 0.0654 0.0000
vt 1.0029 1.0000
vt 0.9375 0.0000
vt 1.0029 0.0000
vt 0.9404 1.0000
vt 0.8750 0.0000
vt 0.9404 0.0000
vt 0.8779 1.0000
vt 0.8125 0.0000
vt 0.8779 0.0000
vt 0.8154 1.0000
vt 0.7500 0.0000
vt 0.8154 0.0000
vt 0.7529 1.0000
vt 0.6875 0.0000
vt 0.7529 0.0000
vt 0.6904 1.0000
vt 0.6250 0.0000
vt 0.6904 0.0000
vt 0.6279 1.0000
vt 0.5625 0.0000
vt 0.6279 0.0000
vt 0.5654 1.0000
vt 0.5000 0.0000
vt 0.5654 0.0000
vt 0.5029 1.0000
vt 0.4375 0.0000
vt 0.5029 0.0000
vt 0.4404 1.0000
vt 0.3750 0.0000
vt 0.4404 0.0000
vt 0.3779 1.0000
vt 0.3125 0.0000
vt 0.3779 0.0000
vt 0.3154 1.0000
vt 0.2500 0.0000
vt 0.3154 0.0000
vt 0.2529 1.0000
vt 0.1875 0.0000
vt 0.2529 0.0000
vt 0.1904 1.0000
vt 0.1250 0.0000
vt 0.1904 0.0000
vt 0.1279 1.0000
vt 0.0625 0.0000
vt 0.1279 0.0000
vt 0.0654 1.0000
vt 0.0000 0.0000
vt 0.0654 0.0000
vt 1.0029 1.0000
vt 0.9375 0.0000
vt 1.0029 0.0000
vt 0.9404 1.0000
vt 0.8750 0.0000
vt 0.9404 0.0000
vt 0.8779 1.0000
vt 0.8125 0.0000
vt 0.8779 0.0000
vt 0.8154 1.0000
vt 0.7500 0.0000
vt 0.8154 0.0000
vt 0.7529 1.0000
vt 0.6875 0.0000
vt 0.7529 0.0000
vt 0.6904 1.0000
vt 0.6250 0.0000
vt 0.6904 0.0000
vt 0.6279 1.0000
vt 0.5625 0.0000
vt 0.6279 0.0000
vt 0.5654 1.0000
vt 0.5000 0.0000
vt 0.5654 0.0000
vt 0.5029 1.0000
vt 0.4375 0.0000
vt 0.5029 0.0000
vt 0.4404 1.0000
vt 0.3750 0.0000
vt 0.4404 0.0000
vt 0.3779 1.0000
vt 0.3125 0.0000
vt 0.3779 0.0000
vt 0.3154 1.0000
vt 0.2500 0.0000
vt 0.3154 0.0000
vt 0.2529 1.0000
vt 0.1875 0.0000
vt 0.2529 0.0000
vt 0.1904 1.0000
vt 0.1250 0.5000
vt 0.1904 0.0000
vt 0.1279 0.0000
vt 0.1279 0.2500
vt 0.1279 0.7500
vt 0.1279 1.0000
vt 0.0000 1.0000
vt 0.9375 1.0000
vt 0.8750 1.0000
vt 0.8125 1.0000
vt 0.7500 1.0000
vt 0.6875 1.0000
vt 0.6250 1.0000
vt 0.5625 1.0000
vt 0.5000 1.0000
vt 0.4375 1.0000
vt 0.3750 1.0000
vt 0.3125 1.0000
vt 0.2500 1.0000
vt 0.1875 1.0000
vt 0.1250 1.0000
vt 0.0625 1.0000
vt 0.0000 1.0000
vt 0.9375 1.0000
vt 0.8750 1.0000
vt 0.8125 1.0000
vt 0.7500 1.0000
vt 0.6875 1.0000
vt 0.6250 1.0000
vt 0.5625 1.0000
vt 0.5000 1.0000
vt 0.4375 1.0000
vt 0.3750 1.0000
vt 0.3125 1.0000
vt 0.2500 1.0000
vt 0.1875 1.0000
vt 0.1250 0.0000
vt 0.1250 0.2500
vt 0.1250 1.0000
vt 0.1250 0.7500
vn 0.1366 -0.6864 0.7142
vn -0.7135 -0.6850 0.1475
vn -0.1366 -0.6864 -0.7142
vn -0.9212 0.0349 0.3875
vn -0.5890 0.6927 0.4163
vn -0.6867 0.0343 0.7261
vn 0.3699 0.0306 0.9285
vn 0.3932 0.6853 0.6129
vn 0.6868 0.0307 0.7262
vn -0.0000 -0.6865 -0.7271
vn 0.1366 -0.6864 -0.7142
vn 0.3934 -0.6860 -0.6121
vn 0.5046 -0.6857 -0.5246
vn 0.5980 -0.6854 -0.4154
vn 0.6690 -0.6851 -0.2881
vn 0.7135 -0.6849 -0.1475
vn 0.7287 -0.6849 -0.0000
vn 0.5979 -0.6855 0.4153
vn 0.5045 -0.6858 0.5246
vn 0.3934 -0.6860 0.6121
vn 0.2692 -0.6863 0.6757
vn -0.3934 -0.6860 0.6121
vn -0.5046 -0.6857 0.5246
vn -0.7135 -0.6849 -0.1476
vn -0.6690 -0.6851 -0.2881
vn -0.5980 -0.6854 -0.4154
vn -0.5046 -0.6857 -0.5246
vn -0.3934 -0.6860 -0.6121
vn -0.2692 -0.6863 -0.6757
vn 0.7135 -0.6849 0.1475
vn -0.1366 -0.6864 0.7142
vn -0.5979 -0.6855 0.4155
vn 0.2692 -0.6863 -0.6757
vn 0.6690 -0.6852 0.2880
vn 0.0000 -0.6865 0.7271
vn -0.2692 -0.6863 0.6757
vn -0.6689 -0.6853 0.2880
vn -0.7287 -0.6849 -0.0000
vn 0.9783 0.0124 0.2069
vn 0.6893 0.4961 0.5280
vn 0.9096 -0.1864 0.3714
vn -0.7049 0.3867 0.5946
vn -0.5685 0.5275 0.6313
vn -0.8501 0.0396 0.5252
vn -0.7028 0.6222 0.3448
vn -0.8048 -0.0170 -0.5933
vn -0.9703 0.0246 0.2407
vn -0.5905 -0.7632 0.2623
vn 0.0608 -0.6796 -0.7311
vn 0.0049 -1.0000 0.0027
vn 0.7297 0.6280 0.2705
vn -0.0190 0.7509 -0.6601
vn 0.1345 0.9870 0.0886
vn -0.1295 0.9810 0.1445
vn 0.0148 0.7181 -0.6958
vn -0.0093 0.7584 -0.6517
vn -0.2534 0.9216 0.2940
vn -0.0323 0.9902 0.1356
vn -0.2184 0.9526 0.2120
vn 0.2451 0.9331 0.2632
vn 0.7720 0.6002 0.2092
vn 0.2218 0.9675 0.1211
vn -0.0047 -1.0000 0.0034
vn -0.0132 -0.7182 -0.6957
vn -0.1053 -0.6618 -0.7423
vn 0.0320 -0.9992 0.0224
vn -0.0032 -0.9999 0.0123
vn -0.0080 -0.9998 0.0159
vn -0.4795 -0.7448 0.4640
vn 0.0052 -0.9996 0.0295
vn -0.0952 -0.9876 0.1252
vn -0.9565 -0.1363 0.2580
vn -0.7814 0.0434 -0.6225
vn -0.7825 0.0586 -0.6199
vn -0.8888 -0.0856 0.4502
vn -0.9012 -0.3116 0.3013
vn -0.7838 -0.3944 0.4797
vn -0.6795 0.6138 0.4019
vn -0.9623 0.1210 0.2434
vn -0.8907 0.1128 0.4405
vn -0.6588 -0.6436 0.3896
vn -0.4926 -0.7973 0.3487
vn -0.6061 -0.4539 0.6531
vn 0.8903 -0.3351 0.3082
vn -0.1591 -0.7357 0.6583
vn 0.6082 -0.5541 0.5684
vn 0.9723 -0.1237 0.1986
vn 0.8066 -0.3865 0.4473
vn 0.9409 -0.3014 0.1548
vn 0.9793 -0.1038 0.1740
vn 0.9642 -0.1804 0.1942
vn 0.9678 -0.1055 0.2284
vn 0.9803 -0.0742 0.1828
vn 0.9852 -0.0659 0.1584
vn 0.8657 -0.1480 0.4782
vn -0.0740 0.8871 0.4556
vn -0.3787 0.7108 0.5928
vn 0.1295 0.8872 0.4429
vn -0.8254 -0.1260 0.5503
vn -0.5919 -0.5309 0.6064
vn -0.9015 -0.0697 0.4271
vn -0.0509 -0.1215 0.9913
vn -0.1538 -0.9239 0.3504
vn 0.6985 0.3722 0.6112
vn 0.9837 -0.1250 0.1290
vn 0.7588 -0.0529 -0.6491
vn 0.7550 -0.1146 -0.6457
vn 0.5901 -0.7937 0.1479
vn 0.6541 -0.7252 0.2152
vn 0.7578 0.0773 -0.6478
vn 0.6512 -0.4986 -0.5721
vn 0.4930 -0.7692 0.4065
vn 0.6322 -0.7513 0.1894
vn 0.1650 -0.9242 0.3444
vn -0.9730 0.0157 0.2303
vn -0.4863 -0.8499 0.2032
vn -0.7146 -0.5062 -0.4828
vn -0.0231 -0.9997 0.0097
vn 0.0002 -1.0000 0.0075
vn -0.0375 0.9625 0.2687
vn 0.7595 0.5847 0.2849
vn -0.7496 0.5847 0.3102
vn -0.2177 0.8145 0.5377
vn -0.6470 0.6392 -0.4156
vn 0.0390 0.9988 0.0302
vn -0.9823 0.0624 0.1765
vn 0.6828 0.5501 -0.4807
vn -0.0000 0.0000 -1.0000
vn 0.1879 0.0000 -0.9822
vn 0.3701 0.0000 -0.9290
vn 0.5407 0.0000 -0.8412
vn 0.6932 0.0000 -0.7207
vn 0.8213 0.0000 -0.5705
vn 0.9185 0.0000 -0.3955
vn 0.9793 0.0000 -0.2025
vn 1.0000 -0.0000 -0.0002
vn 0.9807 -0.0002 0.1955
vn 0.9218 -0.0004 0.3878
vn 0.8178 -0.0002 0.5756
vn 0.1879 -0.0000 0.9822
vn 0.0000 -0.0000 1.0000
vn -0.1879 -0.0000 0.9822
vn -0.3701 -0.0000 0.9290
vn -0.5401 -0.0000 0.8416
vn -0.9807 -0.0000 0.1954
vn -1.0000 0.0000 -0.0002
vn -0.9793 0.0000 -0.2025
vn -0.9185 0.0000 -0.3955
vn -0.8213 0.0000 -0.5705
vn -0.6932 0.0000 -0.7207
vn -0.5407 0.0000 -0.8412
vn -0.3701 0.0000 -0.9290
vn -0.1879 0.0000 -0.9822
usemtl None
s 1
f 4/1/1 5/2/2 6/3/3
f 18/4/4 19/5/5 20/6/6
f 23/7/7 26/8/8 27/9/9
f 6/3/3 36/10/10 37/11/11
f 39/12/12 40/13/13 41/14/14
f 41/14/14 42/15/15 39/12/12
f 43/16/16 44/17/17 45/18/18
f 45/18/18 48/19/19 49/20/20
f 49/20/20 50/21/21 4/1/1
f 54/22/22 55/23/23 5/2/2
f 59/24/24 60/25/25 5/2/2
f 61/26/26 62/27/27 63/28/28
f 63/28/28 64/29/29 6/3/3
f 6/3/3 37/11/11 39/12/12
f 39/12/12 42/15/15 43/16/16
f 44/17/17 46/30/30 45/18/18
f 45/18/18 49/20/20 43/16/16
f 4/1/1 52/31/31 5/2/2
f 55/23/23 56/32/32 5/2/2
f 5/2/2 60/25/25 61/26/26
f 61/26/26 63/28/28 5/2/2
f 6/3/3 39/12/12 4/1/1
f 43/16/16 49/20/20 4/1/1
f 52/31/31 54/22/22 5/2/2
f 5/2/2 63/28/28 6/3/3
f 39/12/12 43/16/16 4/1/1
usemtl None_Log_upwards.jpg.001
f 37/11/11 38/33/33 39/12/12
f 46/30/30 47/34/34 45/18/18
f 4/1/1 51/35/35 52/31/31
f 52/31/31 53/36/36 54/22/22
f 56/32/32 57/37/37 5/2/2
f 5/2/2 58/38/38 59/24/24
usemtl None_Iron.jpg
f 156/39/39 71/40/40 108/41/41
f 155/42/42 75/43/43 111/44/44
f 101/45/45 114/46/46 154/47/47
f 112/48/48 103/49/49 153/50/50
f 107/51/51 104/52/52 152/53/53
f 151/54/54 87/55/55 116/56/56
f 150/57/57 88/58/58 119/59/59
f 149/60/60 78/61/61 120/62/62
f 148/63/63 86/64/64 115/65/65
f 147/66/66 89/67/67 123/68/68
f 100/69/69 124/70/70 146/71/71
f 145/72/72 85/73/73 102/74/74
f 126/75/75 127/76/76 144/77/77
f 113/78/78 128/79/79 143/80/80
f 74/81/81 109/82/82 99/83/83
f 130/84/84 131/85/85 142/86/86
f 133/87/87 96/88/88 141/89/89
f 134/90/90 135/91/91 140/92/92
f 139/93/93 78/94/61 136/95/94
f 79/96/95 108/41/41 130/84/84
f 81/97/96 132/98/97 110/99/98
f 82/100/99 138/101/100 129/102/101
f 129/102/101 131/103/85 91/104/102
f 129/102/101 138/101/100 131/103/85
f 138/101/100 80/105/103 131/103/85
f 110/99/98 137/106/104 71/107/40
f 110/99/98 132/98/97 137/106/104
f 132/98/97 91/108/102 137/106/104
f 130/84/84 137/109/104 91/110/102
f 130/84/84 108/41/41 137/109/104
f 108/41/41 71/40/40 137/109/104
f 134/90/90 136/95/94 92/111/105
f 77/112/106 139/93/93 134/90/90
f 94/113/107 107/114/51 139/93/93
f 140/92/92 76/115/108 93/116/109
f 106/117/110 93/116/109 68/118/111
f 77/112/106 140/92/92 106/117/110
f 141/89/89 70/119/112 105/120/113
f 135/91/91 105/120/113 76/115/108
f 92/111/105 141/89/89 135/91/91
f 142/121/86 80/122/103 97/123/114
f 96/88/88 97/124/114 70/119/112
f 79/96/95 142/86/86 96/88/88
f 99/83/83 138/125/100 82/126/99
f 99/83/83 109/82/82 138/125/100
f 109/82/82 80/127/103 138/125/100
f 143/80/80 90/128/115 126/75/75
f 82/100/99 143/80/80 126/75/75
f 75/43/43 143/80/80 111/44/44
f 100/129/69 127/76/76 83/130/116
f 74/131/81 144/77/77 100/129/69
f 82/100/99 144/77/77 99/132/83
f 112/133/48 102/74/74 72/134/117
f 83/130/116 145/72/72 112/133/48
f 90/128/115 145/72/72 127/76/76
f 146/71/71 89/67/67 122/135/118
f 109/136/82 122/135/118 80/122/103
f 74/137/81 146/71/71 109/136/82
f 105/138/113 123/68/68 76/139/108
f 70/140/112 147/66/66 105/138/113
f 97/123/114 122/135/118 147/66/66
f 93/141/109 115/65/65 68/142/111
f 76/139/108 148/63/63 93/141/109
f 123/68/68 121/143/119 148/63/63
f 118/144/120 120/62/62 88/58/58
f 81/97/96 149/60/60 118/144/120
f 110/99/98 95/145/121 149/60/60
f 113/146/78 119/59/59 84/147/122
f 75/148/43 150/57/57 113/146/78
f 98/149/123 118/144/120 150/57/57
f 101/150/45 116/56/56 73/151/124
f 84/147/122 151/54/54 101/150/45
f 119/59/59 117/152/125 151/54/54
f 152/53/53 87/55/55 117/152/125
f 120/62/62 117/152/125 88/58/58
f 78/61/61 152/53/53 120/62/62
f 153/50/50 86/64/64 121/143/119
f 124/70/70 121/143/119 89/67/67
f 83/153/116 153/50/50 124/70/70
f 154/47/47 85/73/73 125/154/126
f 128/79/79 125/154/126 90/128/115
f 84/155/122 154/47/47 128/79/79
f 155/42/42 82/100/99 129/102/101
f 132/156/97 129/102/101 91/104/102
f 81/97/96 155/157/42 132/98/97
f 133/87/87 108/41/41 79/96/95
f 92/111/105 156/39/39 133/87/87
f 136/95/94 95/158/121 156/39/39
f 85/159/73 114/160/46 87/161/55
f 156/39/39 95/158/121 71/40/40
f 155/42/42 98/162/123 75/43/43
f 101/45/45 73/163/124 114/46/46
f 112/48/48 72/164/117 103/49/49
f 107/51/51 69/165/127 104/52/52
f 151/54/54 117/152/125 87/55/55
f 150/57/57 118/144/120 88/58/58
f 149/60/60 95/145/121 78/61/61
f 148/63/63 121/143/119 86/64/64
f 147/66/66 122/135/118 89/67/67
f 100/69/69 83/153/116 124/70/70
f 145/72/72 125/154/126 85/73/73
f 126/75/75 90/128/115 127/76/76
f 113/78/78 84/155/122 128/79/79
f 130/84/84 91/110/102 131/85/85
f 133/87/87 79/96/95 96/88/88
f 134/90/90 92/111/105 135/91/91
f 139/93/93 107/114/51 78/94/61
f 134/90/90 139/93/93 136/95/94
f 77/112/106 94/113/107 139/93/93
f 94/113/107 69/166/127 107/114/51
f 140/92/92 135/91/91 76/115/108
f 106/117/110 140/92/92 93/116/109
f 77/112/106 134/90/90 140/92/92
f 141/89/89 96/88/88 70/119/112
f 135/91/91 141/89/89 105/120/113
f 92/111/105 133/87/87 141/89/89
f 142/121/86 131/167/85 80/122/103
f 96/88/88 142/86/86 97/124/114
f 79/96/95 130/84/84 142/86/86
f 143/80/80 128/79/79 90/128/115
f 82/100/99 111/44/44 143/80/80
f 75/43/43 113/78/78 143/80/80
f 100/129/69 144/77/77 127/76/76
f 74/131/81 99/132/83 144/77/77
f 82/100/99 126/75/75 144/77/77
f 112/133/48 145/72/72 102/74/74
f 83/130/116 127/76/76 145/72/72
f 90/128/115 125/154/126 145/72/72
f 146/71/71 124/70/70 89/67/67
f 109/136/82 146/71/71 122/135/118
f 74/137/81 100/69/69 146/71/71
f 105/138/113 147/66/66 123/68/68
f 70/140/112 97/123/114 147/66/66
f 97/123/114 80/122/103 122/135/118
f 93/141/109 148/63/63 115/65/65
f 76/139/108 123/68/68 148/63/63
f 123/68/68 89/67/67 121/143/119
f 118/144/120 149/60/60 120/62/62
f 81/97/96 110/99/98 149/60/60
f 110/99/98 71/107/40 95/145/121
f 113/146/78 150/57/57 119/59/59
f 75/148/43 98/149/123 150/57/57
f 98/149/123 81/97/96 118/144/120
f 101/150/45 151/54/54 116/56/56
f 84/147/122 119/59/59 151/54/54
f 119/59/59 88/58/58 117/152/125
f 152/53/53 104/52/52 87/55/55
f 120/62/62 152/53/53 117/152/125
f 78/61/61 107/51/51 152/53/53
f 153/50/50 103/49/49 86/64/64
f 124/70/70 153/50/50 121/143/119
f 83/153/116 112/48/48 153/50/50
f 154/47/47 114/46/46 85/73/73
f 128/79/79 154/47/47 125/154/126
f 84/155/122 101/45/45 154/47/47
f 155/42/42 111/44/44 82/100/99
f 132/156/97 155/42/42 129/102/101
f 81/97/96 98/149/123 155/157/42
f 133/87/87 156/39/39 108/41/41
f 92/111/105 136/95/94 156/39/39
f 136/95/94 78/94/61 95/158/121
f 106/168/110 68/169/111 115/170/65
f 86/171/64 103/172/49 85/159/73
f 106/168/110 115/170/65 77/173/106
f 77/173/106 115/170/65 86/171/64
f 103/172/49 72/174/117 102/175/74
f 103/172/49 102/175/74 85/159/73
f 94/176/107 77/173/106 104/177/52
f 104/177/52 69/178/127 94/176/107
f 73/179/124 116/180/56 114/160/46
f 87/161/55 104/177/52 77/173/106
f 77/173/106 86/171/64 87/161/55
f 114/160/46 116/180/56 87/161/55
f 86/171/64 85/159/73 87/161/55
usemtl None_Log_upwards.jpg
f 65/181/128 7/182/129 37/183/11
f 7/184/129 38/185/33 37/186/11
f 3/187/130 39/188/12 38/189/33
f 35/190/131 40/191/13 39/192/12
f 34/193/132 41/194/14 40/195/13
f 33/196/133 42/197/15 41/198/14
f 32/199/134 43/200/16 42/201/15
f 31/202/135 44/203/17 43/204/16
f 30/205/136 46/206/30 44/207/17
f 29/208/137 47/209/34 46/210/30
f 2/211/138 45/212/18 47/213/34
f 28/214/139 48/215/19 45/216/18
f 27/217/9 49/218/20 48/219/19
f 26/220/8 50/221/21 49/222/20
f 23/223/7 4/224/1 50/225/21
f 25/226/140 51/227/35 4/228/1
f 24/229/141 52/230/31 51/231/35
f 22/232/142 53/233/36 52/234/31
f 1/235/143 54/236/22 53/237/36
f 21/238/144 55/239/23 54/240/22
f 20/241/6 56/242/32 55/243/23
f 19/244/5 57/245/37 56/246/32
f 18/247/4 5/248/2 57/249/37
f 17/250/145 58/251/38 5/252/2
f 16/253/146 59/254/24 58/255/38
f 15/256/147 60/257/25 59/258/24
f 12/259/148 61/260/26 60/261/25
f 14/262/149 62/263/27 61/264/26
f 13/265/150 63/266/28 62/267/27
f 11/268/151 64/269/29 63/270/28
f 8/271/152 6/272/3 64/273/29
f 10/274/153 65/275/128 6/276/3
f 37/183/11 36/277/10 66/278/128
f 65/181/128 67/279/128 7/182/129
f 37/183/11 66/278/128 65/181/128
f 9/280/128 7/182/129 67/279/128
f 7/184/129 3/281/130 38/185/33
f 3/187/130 35/282/131 39/188/12
f 35/190/131 34/283/132 40/191/13
f 34/193/132 33/284/133 41/194/14
f 33/196/133 32/285/134 42/197/15
f 32/199/134 31/286/135 43/200/16
f 31/202/135 30/287/136 44/203/17
f 30/205/136 29/288/137 46/206/30
f 29/208/137 2/289/138 47/209/34
f 2/211/138 28/290/139 45/212/18
f 28/214/139 27/291/9 48/215/19
f 27/217/9 26/292/8 49/218/20
f 26/220/8 23/293/7 50/221/21
f 23/223/7 25/294/140 4/224/1
f 25/226/140 24/295/141 51/227/35
f 24/229/141 22/296/142 52/230/31
f 22/232/142 1/297/143 53/233/36
f 1/235/143 21/298/144 54/236/22
f 21/238/144 20/299/6 55/239/23
f 20/241/6 19/300/5 56/242/32
f 19/244/5 18/301/4 57/245/37
f 18/247/4 17/302/145 5/248/2
f 17/250/145 16/303/146 58/251/38
f 16/253/146 15/304/147 59/254/24
f 15/256/147 12/305/148 60/257/25
f 12/259/148 14/306/149 61/260/26
f 14/262/149 13/307/150 62/263/27
f 13/265/150 11/308/151 63/266/28
f 11/268/151 8/309/152 64/269/29
f 8/271/152 10/310/153 6/272/3
f 36/311/10 6/276/3 66/312/128
f 10/274/153 9/313/128 67/314/128
f 65/275/128 66/312/128 6/276/3
f 10/274/153 67/314/128 65/275/128
