# Blender v2.78 (sub 0) OBJ File: 'firstunwrap.blend'
# www.blender.org
mtllib LogCut.mtl
o Cylinder
v 0.000000 -1.760000 -0.700000
v 0.000000 1.760000 -0.700000
v 0.136563 -1.760000 -0.686550
v 0.136563 1.760000 -0.686550
v 0.267878 -1.760000 -0.646716
v 0.267878 1.760000 -0.646716
v 0.388899 -1.760000 -0.582029
v 0.388899 1.760000 -0.582029
v 0.494975 -1.760000 -0.494975
v 0.494975 1.760000 -0.494975
v 0.582029 -1.760000 -0.388899
v 0.582029 1.760000 -0.388899
v 0.646716 -1.760000 -0.267878
v 0.646716 1.760000 -0.267878
v 0.686550 -1.760000 -0.136563
v 0.686550 1.760000 -0.136563
v 0.700000 -1.760000 -0.000000
v 0.700000 1.760000 -0.000000
v 0.686550 -1.760000 0.136563
v 0.686550 1.760000 0.136563
v 0.646716 -1.760000 0.267878
v 0.646716 1.760000 0.267878
v 0.582029 -1.760000 0.388899
v 0.582029 1.760000 0.388899
v 0.494975 -1.760000 0.494975
v 0.494975 1.760000 0.494975
v 0.388899 -1.760000 0.582029
v 0.388899 1.760000 0.582029
v 0.267878 -1.760000 0.646716
v 0.267878 1.760000 0.646716
v 0.136563 -1.760000 0.686550
v 0.136563 1.760000 0.686550
v -0.000000 -1.760000 0.700000
v -0.000000 1.760000 0.700000
v -0.136564 -1.760000 0.686550
v -0.136564 1.760000 0.686550
v -0.267879 -1.760000 0.646716
v -0.267879 1.760000 0.646716
v -0.388900 -1.760000 0.582029
v -0.388900 1.760000 0.582029
v -0.494975 -1.760000 0.494974
v -0.494975 1.760000 0.494974
v -0.582029 -1.760000 0.388899
v -0.582029 1.760000 0.388899
v -0.646716 -1.760000 0.267878
v -0.646716 1.760000 0.267878
v -0.686550 -1.760000 0.136563
v -0.686550 1.760000 0.136563
v -0.700000 -1.760000 -0.000001
v -0.700000 1.760000 -0.000001
v -0.686550 -1.760000 -0.136564
v -0.686550 1.760000 -0.136564
v -0.646715 -1.760000 -0.267879
v -0.646715 1.760000 -0.267879
v -0.582028 -1.760000 -0.388900
v -0.582028 1.760000 -0.388900
v -0.494974 -1.760000 -0.494975
v -0.494974 1.760000 -0.494975
v -0.388898 -1.760000 -0.582029
v -0.388898 1.760000 -0.582029
v -0.267877 -1.760000 -0.646716
v -0.267877 1.760000 -0.646716
v -0.136562 -1.760000 -0.686550
v -0.136562 1.760000 -0.686550
v 0.000000 0.000000 -0.700000
v 0.000000 0.880000 -0.700000
v 0.000000 -0.880000 -0.700000
vt 0.6037 0.0451
vt 0.0561 0.4121
vt 0.4211 0.9517
vt 0.5603 0.0386
vt 0.0416 0.4101
vt 0.4149 0.9485
vt 0.5124 0.9484
vt 0.7716 0.8577
vt 0.6316 0.9356
vt 0.7037 0.8846
vt 0.7977 0.8213
vt 0.9067 0.6233
vt 0.8196 0.7488
vt 0.8782 0.6946
vt 0.9380 0.5193
vt 0.9563 0.4218
vt 0.9402 0.3312
vt 0.8754 0.2448
vt 0.8256 0.1722
vt 0.7592 0.1165
vt 0.6820 0.0735
vt 0.4907 0.0290
vt 0.2408 0.1004
vt 0.4149 0.0354
vt 0.3273 0.0574
vt 0.1743 0.1561
vt 0.1215 0.2287
vt 0.0846 0.3216
vt 0.0341 0.4968
vt 0.0530 0.6008
vt 0.0970 0.7075
vt 0.1308 0.7778
vt 0.1930 0.8503
vt 0.2625 0.9028
vt 0.3335 0.9297
vt 0.5217 0.9484
vt 0.6192 0.9292
vt 0.7068 0.8846
vt 0.7592 0.8545
vt 0.8008 0.7955
vt 0.8692 0.6875
vt 0.9216 0.5979
vt 0.9563 0.5234
vt 0.9690 0.4742
vt 0.8630 0.2287
vt 0.9563 0.3896
vt 0.9216 0.2990
vt 0.8039 0.1529
vt 0.7220 0.0778
vt 0.6479 0.0574
vt 0.4845 0.0387
vt 0.3870 0.0354
vt 0.3025 0.0671
vt 0.2253 0.1101
vt 0.1650 0.1690
vt 0.1091 0.2512
vt 0.0784 0.3119
vt 0.0345 0.5026
vt 0.0465 0.6027
vt 0.0725 0.6913
vt 0.1236 0.7752
vt 0.1686 0.8408
vt 0.2370 0.8927
vt 0.3273 0.9362
vt 0.1279 0.5000
vt 0.0625 1.0000
vt 0.0625 0.0000
vt 0.0654 1.0000
vt 0.0000 0.0000
vt 0.0654 0.0000
vt 1.0029 1.0000
vt 0.9375 0.0000
vt 1.0029 0.0000
vt 0.9404 1.0000
vt 0.8750 0.0000
vt 0.9404 0.0000
vt 0.8779 1.0000
vt 0.8125 0.0000
vt 0.8779 0.0000
vt 0.8154 1.0000
vt 0.7500 0.0000
vt 0.8154 0.0000
vt 0.7529 1.0000
vt 0.6875 0.0000
vt 0.7529 0.0000
vt 0.6904 1.0000
vt 0.6250 0.0000
vt 0.6904 0.0000
vt 0.6279 1.0000
vt 0.5625 0.0000
vt 0.6279 0.0000
vt 0.5654 1.0000
vt 0.5000 0.0000
vt 0.5654 0.0000
vt 0.5029 1.0000
vt 0.4375 0.0000
vt 0.5029 0.0000
vt 0.4404 1.0000
vt 0.3750 0.0000
vt 0.4404 0.0000
vt 0.3779 1.0000
vt 0.3125 0.0000
vt 0.3779 0.0000
vt 0.3154 1.0000
vt 0.2500 0.0000
vt 0.3154 0.0000
vt 0.2529 1.0000
vt 0.1875 0.0000
vt 0.2529 0.0000
vt 0.1904 1.0000
vt 0.1250 0.0000
vt 0.1904 0.0000
vt 0.1279 1.0000
vt 0.0625 0.0000
vt 0.1279 0.0000
vt 0.0654 1.0000
vt 0.0000 0.0000
vt 0.0654 0.0000
vt 1.0029 1.0000
vt 0.9375 0.0000
vt 1.0029 0.0000
vt 0.9404 1.0000
vt 0.8750 0.0000
vt 0.9404 0.0000
vt 0.8779 1.0000
vt 0.8125 0.0000
vt 0.8779 0.0000
vt 0.8154 1.0000
vt 0.7500 0.0000
vt 0.8154 0.0000
vt 0.7529 1.0000
vt 0.6875 0.0000
vt 0.7529 0.0000
vt 0.6904 1.0000
vt 0.6250 0.0000
vt 0.6904 0.0000
vt 0.6279 1.0000
vt 0.5625 0.0000
vt 0.6279 0.0000
vt 0.5654 1.0000
vt 0.5000 0.0000
vt 0.5654 0.0000
vt 0.5029 1.0000
vt 0.4375 0.0000
vt 0.5029 0.0000
vt 0.4404 1.0000
vt 0.3750 0.0000
vt 0.4404 0.0000
vt 0.3779 1.0000
vt 0.3125 0.0000
vt 0.3779 0.0000
vt 0.3154 1.0000
vt 0.2500 0.0000
vt 0.3154 0.0000
vt 0.2529 1.0000
vt 0.1875 0.0000
vt 0.2529 0.0000
vt 0.1904 1.0000
vt 0.1250 0.5000
vt 0.1904 0.0000
vt 0.1279 0.0000
vt 0.1279 0.2500
vt 0.1279 0.7500
vt 0.1279 1.0000
vt 0.0000 1.0000
vt 0.9375 1.0000
vt 0.8750 1.0000
vt 0.8125 1.0000
vt 0.7500 1.0000
vt 0.6875 1.0000
vt 0.6250 1.0000
vt 0.5625 1.0000
vt 0.5000 1.0000
vt 0.4375 1.0000
vt 0.3750 1.0000
vt 0.3125 1.0000
vt 0.2500 1.0000
vt 0.1875 1.0000
vt 0.1250 1.0000
vt 0.0625 1.0000
vt 0.0000 1.0000
vt 0.9375 1.0000
vt 0.8750 1.0000
vt 0.8125 1.0000
vt 0.7500 1.0000
vt 0.6875 1.0000
vt 0.6250 1.0000
vt 0.5625 1.0000
vt 0.5000 1.0000
vt 0.4375 1.0000
vt 0.3750 1.0000
vt 0.3125 1.0000
vt 0.2500 1.0000
vt 0.1875 1.0000
vt 0.1250 0.0000
vt 0.1250 0.2500
vt 0.1250 1.0000
vt 0.1250 0.7500
vn 0.0000 1.0000 0.0000
vn 0.0000 -1.0000 -0.0000
vn 0.0980 0.0000 -0.9952
vn 0.2903 0.0000 -0.9569
vn 0.4714 0.0000 -0.8819
vn 0.6344 0.0000 -0.7730
vn 0.7730 0.0000 -0.6344
vn 0.8819 0.0000 -0.4714
vn 0.9569 0.0000 -0.2903
vn 0.9952 0.0000 -0.0980
vn 0.9952 0.0000 0.0980
vn 0.9569 0.0000 0.2903
vn 0.8819 0.0000 0.4714
vn 0.7730 0.0000 0.6344
vn 0.6344 0.0000 0.7730
vn 0.4714 0.0000 0.8819
vn 0.2903 0.0000 0.9569
vn 0.0980 0.0000 0.9952
vn -0.0980 0.0000 0.9952
vn -0.2903 0.0000 0.9569
vn -0.4714 0.0000 0.8819
vn -0.6344 0.0000 0.7730
vn -0.7730 0.0000 0.6344
vn -0.8819 0.0000 0.4714
vn -0.9569 0.0000 0.2903
vn -0.9952 0.0000 0.0980
vn -0.9952 0.0000 -0.0980
vn -0.9569 0.0000 -0.2903
vn -0.8819 0.0000 -0.4714
vn -0.7730 0.0000 -0.6344
vn -0.6344 0.0000 -0.7730
vn -0.4714 0.0000 -0.8819
vn -0.2903 0.0000 -0.9569
vn -0.0980 0.0000 -0.9952
usemtl None
s off
f 38/1/1 22/2/1 6/3/1
f 31/4/2 47/5/2 63/6/2
f 6/3/1 4/7/1 62/8/1
f 2/9/1 64/10/1 62/8/1
f 62/8/1 60/11/1 54/12/1
f 58/13/1 56/14/1 54/12/1
f 54/12/1 52/15/1 50/16/1
f 50/16/1 48/17/1 54/12/1
f 46/18/1 44/19/1 42/20/1
f 42/20/1 40/21/1 46/18/1
f 38/1/1 36/22/1 30/23/1
f 34/24/1 32/25/1 30/23/1
f 30/23/1 28/26/1 26/27/1
f 26/27/1 24/28/1 22/2/1
f 22/2/1 20/29/1 18/30/1
f 18/30/1 16/31/1 14/32/1
f 14/32/1 12/33/1 10/34/1
f 10/34/1 8/35/1 6/3/1
f 4/7/1 2/9/1 62/8/1
f 60/11/1 58/13/1 54/12/1
f 54/12/1 48/17/1 46/18/1
f 46/18/1 40/21/1 38/1/1
f 36/22/1 34/24/1 30/23/1
f 30/23/1 26/27/1 38/1/1
f 22/2/1 18/30/1 14/32/1
f 14/32/1 10/34/1 22/2/1
f 6/3/1 62/8/1 38/1/1
f 54/12/1 46/18/1 38/1/1
f 38/1/1 26/27/1 22/2/1
f 22/2/1 10/34/1 6/3/1
f 62/8/1 54/12/1 38/1/1
f 63/6/2 1/36/2 3/37/2
f 3/37/2 5/38/2 7/39/2
f 7/39/2 9/40/2 11/41/2
f 11/41/2 13/42/2 7/39/2
f 15/43/2 17/44/2 23/45/2
f 19/46/2 21/47/2 23/45/2
f 23/45/2 25/48/2 27/49/2
f 27/49/2 29/50/2 31/4/2
f 31/4/2 33/51/2 35/52/2
f 35/52/2 37/53/2 39/54/2
f 39/54/2 41/55/2 47/5/2
f 43/56/2 45/57/2 47/5/2
f 47/5/2 49/58/2 51/59/2
f 51/59/2 53/60/2 47/5/2
f 55/61/2 57/62/2 59/63/2
f 59/63/2 61/64/2 63/6/2
f 63/6/2 3/37/2 7/39/2
f 7/39/2 13/42/2 15/43/2
f 17/44/2 19/46/2 23/45/2
f 23/45/2 27/49/2 15/43/2
f 31/4/2 35/52/2 47/5/2
f 41/55/2 43/56/2 47/5/2
f 47/5/2 53/60/2 55/61/2
f 55/61/2 59/63/2 47/5/2
f 63/6/2 7/39/2 31/4/2
f 15/43/2 27/49/2 31/4/2
f 35/52/2 39/54/2 47/5/2
f 47/5/2 59/63/2 63/6/2
f 7/39/2 15/43/2 31/4/2
usemtl None_Log_upwards.jpg
f 65/65/3 4/66/3 3/67/3
f 4/68/4 5/69/4 3/70/4
f 6/71/5 7/72/5 5/73/5
f 8/74/6 9/75/6 7/76/6
f 10/77/7 11/78/7 9/79/7
f 12/80/8 13/81/8 11/82/8
f 14/83/9 15/84/9 13/85/9
f 16/86/10 17/87/10 15/88/10
f 18/89/11 19/90/11 17/91/11
f 20/92/12 21/93/12 19/94/12
f 22/95/13 23/96/13 21/97/13
f 24/98/14 25/99/14 23/100/14
f 26/101/15 27/102/15 25/103/15
f 28/104/16 29/105/16 27/106/16
f 30/107/17 31/108/17 29/109/17
f 32/110/18 33/111/18 31/112/18
f 34/113/19 35/114/19 33/115/19
f 36/116/20 37/117/20 35/118/20
f 38/119/21 39/120/21 37/121/21
f 40/122/22 41/123/22 39/124/22
f 42/125/23 43/126/23 41/127/23
f 44/128/24 45/129/24 43/130/24
f 46/131/25 47/132/25 45/133/25
f 48/134/26 49/135/26 47/136/26
f 50/137/27 51/138/27 49/139/27
f 52/140/28 53/141/28 51/142/28
f 54/143/29 55/144/29 53/145/29
f 56/146/30 57/147/30 55/148/30
f 58/149/31 59/150/31 57/151/31
f 60/152/32 61/153/32 59/154/32
f 62/155/33 63/156/33 61/157/33
f 64/158/34 65/159/34 63/160/34
f 3/67/3 1/161/3 67/162/3
f 65/65/3 66/163/3 4/66/3
f 3/67/3 67/162/3 65/65/3
f 2/164/3 4/66/3 66/163/3
f 4/68/4 6/165/4 5/69/4
f 6/71/5 8/166/5 7/72/5
f 8/74/6 10/167/6 9/75/6
f 10/77/7 12/168/7 11/78/7
f 12/80/8 14/169/8 13/81/8
f 14/83/9 16/170/9 15/84/9
f 16/86/10 18/171/10 17/87/10
f 18/89/11 20/172/11 19/90/11
f 20/92/12 22/173/12 21/93/12
f 22/95/13 24/174/13 23/96/13
f 24/98/14 26/175/14 25/99/14
f 26/101/15 28/176/15 27/102/15
f 28/104/16 30/177/16 29/105/16
f 30/107/17 32/178/17 31/108/17
f 32/110/18 34/179/18 33/111/18
f 34/113/19 36/180/19 35/114/19
f 36/116/20 38/181/20 37/117/20
f 38/119/21 40/182/21 39/120/21
f 40/122/22 42/183/22 41/123/22
f 42/125/23 44/184/23 43/126/23
f 44/128/24 46/185/24 45/129/24
f 46/131/25 48/186/25 47/132/25
f 48/134/26 50/187/26 49/135/26
f 50/137/27 52/188/27 51/138/27
f 52/140/28 54/189/28 53/141/28
f 54/143/29 56/190/29 55/144/29
f 56/146/30 58/191/30 57/147/30
f 58/149/31 60/192/31 59/150/31
f 60/152/32 62/193/32 61/153/32
f 62/155/33 64/194/33 63/156/33
f 1/195/34 63/160/34 67/196/34
f 64/158/34 2/197/34 66/198/34
f 65/159/34 67/196/34 63/160/34
f 64/158/34 66/198/34 65/159/34
