# Blender v2.78 (sub 0) OBJ File: 'Ugly tree.blend'
# www.blender.org
mtllib Tree.mtl
o Cylinder
v -0.267879 2.703512 0.646716
v 0.646716 2.703512 0.267878
v 0.267878 2.703512 -0.646716
v 0.136563 -2.703512 0.686550
v -0.686550 -2.703512 0.136563
v -0.136562 -2.703512 -0.686550
v 0.136563 2.703512 -0.686550
v -0.267877 2.703512 -0.646716
v 0.000000 2.703512 -0.700000
v -0.136562 2.703512 -0.686550
v -0.388898 2.703512 -0.582029
v -0.646715 2.703512 -0.267879
v -0.494974 2.703512 -0.494975
v -0.582028 2.703512 -0.388900
v -0.686550 2.703512 -0.136564
v -0.700000 2.703512 -0.000001
v -0.686550 2.703512 0.136563
v -0.646716 2.703512 0.267878
v -0.582029 2.703512 0.388899
v -0.494975 2.703512 0.494974
v -0.388900 2.703512 0.582029
v -0.136564 2.703512 0.686550
v 0.267878 2.703512 0.646716
v 0.000000 2.703512 0.700000
v 0.136563 2.703512 0.686550
v 0.388899 2.703512 0.582029
v 0.494975 2.703512 0.494975
v 0.582029 2.703512 0.388899
v 0.686550 2.703512 0.136563
v 0.700000 2.703512 0.000000
v 0.686550 2.703512 -0.136563
v 0.646716 2.703512 -0.267878
v 0.582029 2.703512 -0.388899
v 0.494975 2.703512 -0.494975
v 0.388899 2.703512 -0.582029
v 0.000000 -2.703512 -0.700000
v 0.136563 -2.703512 -0.686550
v 0.267878 -2.703512 -0.646716
v 0.388899 -2.703512 -0.582029
v 0.494975 -2.703512 -0.494975
v 0.582029 -2.703512 -0.388899
v 0.646716 -2.703512 -0.267878
v 0.686550 -2.703512 -0.136563
v 0.700000 -2.703512 -0.000000
v 0.582029 -2.703512 0.388899
v 0.686550 -2.703512 0.136563
v 0.646716 -2.703512 0.267878
v 0.494975 -2.703512 0.494975
v 0.388899 -2.703512 0.582029
v 0.267878 -2.703512 0.646716
v 0.000000 -2.703512 0.700000
v -0.136564 -2.703512 0.686550
v -0.267879 -2.703512 0.646716
v -0.388900 -2.703512 0.582029
v -0.494975 -2.703512 0.494974
v -0.582029 -2.703512 0.388899
v -0.646716 -2.703512 0.267878
v -0.700000 -2.703512 -0.000001
v -0.686550 -2.703512 -0.136564
v -0.646715 -2.703512 -0.267879
v -0.582028 -2.703512 -0.388900
v -0.494974 -2.703512 -0.494975
v -0.388898 -2.703512 -0.582029
v -0.267877 -2.703512 -0.646716
v 0.000000 0.000000 -0.700000
v 0.000000 -1.351756 -0.700000
v 0.000000 1.351756 -0.700000
v -2.000000 2.142854 1.314172
v 0.000000 2.142854 1.314172
v -2.000000 1.279505 -1.557411
v 0.000000 1.279505 -1.557411
v 2.278974 2.205980 -1.147926
v 0.279898 2.205980 -1.208707
v 2.191705 1.342631 1.722331
v 0.192629 1.342631 1.661550
v -1.134085 2.147114 -2.071437
v -1.134649 2.147114 -0.071437
v 1.737497 1.283765 -2.070627
v 1.736933 1.283765 -0.070627
v 1.326805 2.210240 2.208231
v 1.388150 2.210240 0.209172
v -1.543427 1.346891 2.120152
v -1.482081 1.346891 0.121093
v -1.839470 2.346992 -1.282556
v -0.807591 2.346992 0.430694
v 0.620399 1.483643 -2.764119
v 1.652279 1.483643 -1.050869
v 2.477316 2.410117 1.112627
v 1.497981 2.410117 -0.631191
v -0.026443 1.546768 2.518749
v -1.005779 1.546768 0.774931
v 1.507487 2.351252 -2.287560
v -0.206054 2.351252 -1.256165
v 2.988356 1.487903 0.172726
v 1.274815 1.487903 1.204122
v -0.888914 2.414377 2.028550
v 0.855181 2.414377 1.049706
v -2.294329 1.551029 -0.475607
v -0.550235 1.551028 -1.454450
v -2.397517 2.819575 0.245937
v -0.564694 2.819575 1.046412
v -1.248202 1.956226 -2.385614
v 0.584620 1.956226 -1.585139
v 2.509207 2.882700 -0.297751
v 0.701558 2.882700 -1.153557
v 1.280449 2.019351 2.297656
v -0.527201 2.019351 1.441851
v -0.248936 2.823835 -2.510102
v -1.049927 2.823834 -0.677505
v 2.382291 1.960486 -1.360045
v 1.581300 1.960486 0.472552
v 0.293369 2.886960 2.396776
v 1.149685 2.886961 0.589368
v -2.301692 2.023612 1.167285
v -1.445376 2.023612 -0.640123
v -1.837866 2.945370 -0.290308
v -0.637371 2.945370 0.753455
v -0.339239 2.258665 -2.013968
v 0.861256 2.258665 -0.970205
v 2.015501 2.995581 0.464943
v 0.847282 2.995580 -0.614823
v 0.465183 2.308875 2.142263
v -0.703036 2.308875 1.062497
v 0.448785 2.948759 -1.870606
v -0.595317 2.948759 -0.670406
v 2.172022 2.262053 -0.371493
v 1.127920 2.262053 0.828707
v -0.307553 2.998969 1.982548
v 0.772542 2.998969 0.814633
v -1.984435 2.312263 0.431757
v -0.904340 2.312263 -0.736158
v -0.886615 3.200551 0.863769
v 0.128456 3.200552 0.705949
v -1.113212 2.757107 -0.593662
v -0.098140 2.757107 -0.751482
v 1.090833 3.232975 -0.723487
v 0.071434 3.232975 -0.596589
v 1.273033 2.789530 0.740157
v 0.253634 2.789530 0.867055
v -0.714291 3.202740 -0.922878
v -0.556757 3.202739 0.092238
v 0.743204 2.759295 -1.149063
v 0.900738 2.759295 -0.133947
v 0.872408 3.235163 1.055018
v 0.745797 3.235163 0.035583
v -0.591288 2.791718 1.236805
v -0.717899 2.791718 0.217370
v -0.146994 3.596701 0.737140
v 0.317703 3.494368 0.355795
v -0.732407 3.287057 0.106865
v -0.267710 3.184723 -0.274480
v 0.367898 3.353321 -0.656272
v -0.108461 3.454536 -0.289288
v 0.884172 3.149307 0.070140
v 0.407813 3.250523 0.437124
v -0.607233 3.494022 -0.218306
v -0.216561 3.529289 0.248567
v 0.035831 3.088057 -0.725746
v 0.426503 3.123324 -0.258873
v 0.802581 3.462451 0.308354
v 0.426215 3.424090 -0.169890
v 0.094175 3.348710 0.874975
v -0.282190 3.310349 0.396732
v 0.235321 3.682001 0.429804
v 0.301899 3.621961 0.083453
v -0.265201 3.500331 0.365082
v -0.198623 3.440291 0.018732
v -0.055112 3.539208 -0.391934
v -0.132338 3.598592 -0.047687
v 0.450284 3.419512 -0.257908
v 0.373058 3.478896 0.086339
v -0.330714 3.621759 0.171437
v 0.020661 3.642450 0.235498
v -0.230973 3.383576 -0.298708
v 0.120401 3.404268 -0.234646
v 0.502838 3.603236 -0.119840
v 0.153652 3.580729 -0.194397
v 0.395822 3.536503 0.401514
v 0.046635 3.513997 0.326957
vt 0.6192 0.9292
vt 0.7068 0.8846
vt 0.7592 0.8545
vt 0.9563 0.3896
vt 0.9216 0.2990
vt 0.8630 0.2287
vt 0.5603 0.0386
vt 0.4845 0.0387
vt 0.3870 0.0354
vt 0.3025 0.0671
vt 0.2253 0.1101
vt 0.1091 0.2512
vt 0.0784 0.3119
vt 0.0416 0.4101
vt 0.0345 0.5026
vt 0.0465 0.6027
vt 0.5707 0.0001
vt 0.0001 0.9999
vt 0.0001 0.0001
vt 0.5707 0.0001
vt 0.0001 0.9999
vt 0.0001 0.0001
vt 0.5707 0.0001
vt 0.0001 0.9999
vt 0.0001 0.0001
vt 0.5707 0.0001
vt 0.0001 0.9999
vt 0.0001 0.0001
vt 0.0001 0.0001
vt 0.5707 0.9999
vt 0.0001 0.9999
vt 0.5707 0.0001
vt 0.0001 0.9999
vt 0.0001 0.0001
vt 0.0001 0.0001
vt 0.5707 0.9999
vt 0.0001 0.9999
vt 0.5707 0.0001
vt 0.0001 0.9999
vt 0.0001 0.0001
vt 0.5707 0.0001
vt 0.0001 0.9999
vt 0.0001 0.0001
vt 0.0001 0.0001
vt 0.5707 0.9999
vt 0.0001 0.9999
vt 0.5707 0.0001
vt 0.0001 0.9999
vt 0.0001 0.0001
vt 0.0001 0.0001
vt 0.5707 0.9999
vt 0.0001 0.9999
vt 0.5707 0.0001
vt 0.0001 0.9999
vt 0.0001 0.0001
vt 0.0001 0.0001
vt 0.5707 0.9999
vt 0.0001 0.9999
vt 0.5707 0.0001
vt 0.0001 0.9999
vt 0.0001 0.0001
vt 0.5707 0.0001
vt 0.0001 0.9999
vt 0.0001 0.0001
vt 0.5707 0.0001
vt 0.0001 0.9999
vt 0.0001 0.0001
vt 0.0001 0.0001
vt 0.5707 0.9999
vt 0.0001 0.9999
vt 0.5707 0.0001
vt 0.0001 0.9999
vt 0.0001 0.0001
vt 0.5707 0.0001
vt 0.0001 0.9999
vt 0.0001 0.0001
vt 0.0001 0.0001
vt 0.5707 0.9999
vt 0.0001 0.9999
vt 0.0001 0.0001
vt 0.5707 0.9999
vt 0.0001 0.9999
vt 0.5707 0.0001
vt 0.0001 0.9999
vt 0.0001 0.0001
vt 0.5707 0.0001
vt 0.0001 0.9999
vt 0.0001 0.0001
vt 0.5707 0.0001
vt 0.0001 0.9999
vt 0.0001 0.0001
vt 0.0001 0.0001
vt 0.5707 0.9999
vt 0.0001 0.9999
vt 0.0001 0.0001
vt 0.5707 0.9999
vt 0.0001 0.9999
vt 0.0001 0.0001
vt 0.5707 0.9999
vt 0.0001 0.9999
vt 0.5707 0.9999
vt 0.5707 0.9999
vt 0.5707 0.9999
vt 0.5707 0.9999
vt 0.5707 0.0001
vt 0.5707 0.9999
vt 0.5707 0.0001
vt 0.5707 0.9999
vt 0.5707 0.9999
vt 0.5707 0.0001
vt 0.5707 0.9999
vt 0.5707 0.0001
vt 0.5707 0.9999
vt 0.5707 0.0001
vt 0.5707 0.9999
vt 0.5707 0.9999
vt 0.5707 0.9999
vt 0.5707 0.0001
vt 0.5707 0.9999
vt 0.5707 0.9999
vt 0.5707 0.0001
vt 0.5707 0.0001
vt 0.5707 0.9999
vt 0.5707 0.9999
vt 0.5707 0.9999
vt 0.5707 0.0001
vt 0.5707 0.0001
vt 0.5707 0.0001
vt 0.4149 0.9485
vt 0.8754 0.2448
vt 0.8256 0.1722
vt 0.7592 0.1165
vt 0.2408 0.1004
vt 0.1743 0.1561
vt 0.1215 0.2287
vt 0.5217 0.9484
vt 0.8008 0.7955
vt 0.8692 0.6875
vt 0.9216 0.5979
vt 0.9563 0.5234
vt 0.9690 0.4742
vt 0.8039 0.1529
vt 0.7220 0.0778
vt 0.6479 0.0574
vt 0.1650 0.1690
vt 0.0725 0.6913
vt 0.1236 0.7752
vt 0.1686 0.8408
vt 0.2370 0.8927
vt 0.3273 0.9362
vt 0.1279 0.5000
vt 0.0625 1.0000
vt 0.0625 0.0000
vt 0.0654 1.0000
vt 0.0000 0.0000
vt 0.0654 0.0000
vt 1.0029 1.0000
vt 0.9375 0.0000
vt 1.0029 0.0000
vt 0.9404 1.0000
vt 0.8750 0.0000
vt 0.9404 0.0000
vt 0.8779 1.0000
vt 0.8125 0.0000
vt 0.8779 0.0000
vt 0.8154 1.0000
vt 0.7500 0.0000
vt 0.8154 0.0000
vt 0.7529 1.0000
vt 0.6875 0.0000
vt 0.7529 0.0000
vt 0.6904 1.0000
vt 0.6250 0.0000
vt 0.6904 0.0000
vt 0.6279 1.0000
vt 0.5625 0.0000
vt 0.6279 0.0000
vt 0.5654 1.0000
vt 0.5000 0.0000
vt 0.5654 0.0000
vt 0.5029 1.0000
vt 0.4375 0.0000
vt 0.5029 0.0000
vt 0.4404 1.0000
vt 0.3750 0.0000
vt 0.4404 0.0000
vt 0.3779 1.0000
vt 0.3125 0.0000
vt 0.3779 0.0000
vt 0.3154 1.0000
vt 0.2500 0.0000
vt 0.3154 0.0000
vt 0.2529 1.0000
vt 0.1875 0.0000
vt 0.2529 0.0000
vt 0.1904 1.0000
vt 0.1250 0.0000
vt 0.1904 0.0000
vt 0.1279 1.0000
vt 0.0625 0.0000
vt 0.1279 0.0000
vt 0.0654 1.0000
vt 0.0000 0.0000
vt 0.0654 0.0000
vt 1.0029 1.0000
vt 0.9375 0.0000
vt 1.0029 0.0000
vt 0.9404 1.0000
vt 0.8750 0.0000
vt 0.9404 0.0000
vt 0.8779 1.0000
vt 0.8125 0.0000
vt 0.8779 0.0000
vt 0.8154 1.0000
vt 0.7500 0.0000
vt 0.8154 0.0000
vt 0.7529 1.0000
vt 0.6875 0.0000
vt 0.7529 0.0000
vt 0.6904 1.0000
vt 0.6250 0.0000
vt 0.6904 0.0000
vt 0.6279 1.0000
vt 0.5625 0.0000
vt 0.6279 0.0000
vt 0.5654 1.0000
vt 0.5000 0.0000
vt 0.5654 0.0000
vt 0.5029 1.0000
vt 0.4375 0.0000
vt 0.5029 0.0000
vt 0.4404 1.0000
vt 0.3750 0.0000
vt 0.4404 0.0000
vt 0.3779 1.0000
vt 0.3125 0.0000
vt 0.3779 0.0000
vt 0.3154 1.0000
vt 0.2500 0.0000
vt 0.3154 0.0000
vt 0.2529 1.0000
vt 0.1875 0.0000
vt 0.2529 0.0000
vt 0.1904 1.0000
vt 0.1250 0.5000
vt 0.1904 0.0000
vt 0.1279 0.0000
vt 0.1279 0.2500
vt 0.1279 0.7500
vt 0.1279 1.0000
vt 0.0000 1.0000
vt 0.9375 1.0000
vt 0.8750 1.0000
vt 0.8125 1.0000
vt 0.7500 1.0000
vt 0.6875 1.0000
vt 0.6250 1.0000
vt 0.5625 1.0000
vt 0.5000 1.0000
vt 0.4375 1.0000
vt 0.3750 1.0000
vt 0.3125 1.0000
vt 0.2500 1.0000
vt 0.1875 1.0000
vt 0.1250 1.0000
vt 0.0625 1.0000
vt 0.0000 1.0000
vt 0.9375 1.0000
vt 0.8750 1.0000
vt 0.8125 1.0000
vt 0.7500 1.0000
vt 0.6875 1.0000
vt 0.6250 1.0000
vt 0.5625 1.0000
vt 0.5000 1.0000
vt 0.4375 1.0000
vt 0.3750 1.0000
vt 0.3125 1.0000
vt 0.2500 1.0000
vt 0.1875 1.0000
vt 0.1250 0.0000
vt 0.1250 0.2500
vt 0.1250 1.0000
vt 0.1250 0.7500
vt 0.0535 0.3477
vt 0.7042 0.0838
vt 0.3578 0.9436
vt 0.6746 0.9136
vt 0.5922 0.9436
vt 0.5318 0.9474
vt 0.4477 0.9577
vt 0.2828 0.9059
vt 0.2132 0.8716
vt 0.1520 0.8173
vt 0.1088 0.7150
vt 0.0560 0.6266
vt 0.0366 0.5428
vt 0.0366 0.4443
vt 0.1039 0.2619
vt 0.2255 0.1104
vt 0.2729 0.0633
vt 0.3603 0.0359
vt 0.4403 0.0346
vt 0.5269 0.0371
vt 0.6094 0.0487
vt 0.8325 0.1698
vt 0.8929 0.2695
vt 0.9433 0.3605
vt 0.9675 0.4622
vt 0.9380 0.5402
vt 0.7931 0.8148
vt 0.8990 0.6394
vt 0.8412 0.7176
vt 0.7540 0.8691
vn 0.0000 -1.0000 -0.0000
vn 0.0000 0.9577 -0.2879
vn -0.0088 0.9577 0.2878
vn 0.2879 0.9577 0.0001
vn -0.2878 0.9577 -0.0088
vn 0.2466 0.9577 -0.1486
vn -0.2510 0.9577 0.1410
vn 0.1485 0.9577 0.2467
vn -0.1409 0.9577 -0.2511
vn 0.1152 0.9577 -0.2639
vn -0.1232 0.9577 0.2602
vn 0.2638 0.9577 0.1153
vn -0.2602 0.9577 -0.1233
vn 0.1889 0.9577 -0.2173
vn -0.1954 0.9577 0.2114
vn 0.2172 0.9577 0.1890
vn -0.2114 0.9577 -0.1955
vn -0.0442 0.9577 -0.2845
vn 0.0356 0.9577 0.2857
vn 0.2845 0.9577 -0.0442
vn -0.2857 0.9577 0.0355
vn -0.0961 0.9258 -0.3656
vn 0.2662 0.9605 0.0806
vn 0.3079 0.8941 -0.3252
vn -0.1366 0.9902 0.0280
vn -0.3076 0.9258 -0.2196
vn 0.2562 0.9605 -0.1082
vn 0.0288 0.8941 -0.4469
vn -0.0871 0.9902 0.1089
vn 0.2466 0.9577 -0.1485
vn 0.0000 1.0000 0.0000
vn 0.0980 0.0000 -0.9952
vn 0.2903 0.0000 -0.9569
vn 0.4714 0.0000 -0.8819
vn 0.6344 0.0000 -0.7730
vn 0.7730 0.0000 -0.6344
vn 0.8819 0.0000 -0.4714
vn 0.9569 0.0000 -0.2903
vn 0.9952 -0.0000 -0.0980
vn 0.9952 -0.0000 0.0980
vn 0.9569 -0.0000 0.2903
vn 0.8819 -0.0000 0.4714
vn 0.7730 -0.0000 0.6344
vn 0.6344 -0.0000 0.7730
vn 0.4714 -0.0000 0.8819
vn 0.2903 -0.0000 0.9569
vn 0.0980 -0.0000 0.9952
vn -0.0980 -0.0000 0.9952
vn -0.2903 -0.0000 0.9569
vn -0.4714 -0.0000 0.8819
vn -0.6344 -0.0000 0.7730
vn -0.7730 -0.0000 0.6344
vn -0.8819 -0.0000 0.4714
vn -0.9569 -0.0000 0.2903
vn -0.9952 0.0000 0.0980
vn -0.9952 0.0000 -0.0980
vn -0.9569 0.0000 -0.2903
vn -0.8819 0.0000 -0.4714
vn -0.7730 0.0000 -0.6344
vn -0.6344 0.0000 -0.7730
vn -0.4714 0.0000 -0.8819
vn -0.2903 0.0000 -0.9569
vn -0.0980 0.0000 -0.9952
usemtl None
s 1
f 37/1/1 38/2/1 39/3/1
f 46/4/1 47/5/1 45/6/1
f 4/7/1 51/8/1 52/9/1
f 52/9/1 53/10/1 54/11/1
f 56/12/1 57/13/1 5/14/1
f 5/14/1 58/15/1 59/16/1
usemtl None_Tree.png
s off
f 69/17/2 70/18/2 68/19/2
f 73/20/3 74/21/3 72/22/3
f 77/23/4 78/24/4 76/25/4
f 81/26/5 82/27/5 80/28/5
f 84/29/6 87/30/6 86/31/6
f 89/32/7 90/33/7 88/34/7
f 92/35/8 95/36/8 94/37/8
f 97/38/9 98/39/9 96/40/9
f 101/41/10 102/42/10 100/43/10
f 104/44/11 107/45/11 106/46/11
f 109/47/12 110/48/12 108/49/12
f 112/50/13 115/51/13 114/52/13
f 117/53/14 118/54/14 116/55/14
f 120/56/15 123/57/15 122/58/15
f 125/59/16 126/60/16 124/61/16
f 129/62/17 130/63/17 128/64/17
f 133/65/18 134/66/18 132/67/18
f 136/68/19 139/69/19 138/70/19
f 141/71/20 142/72/20 140/73/20
f 145/74/21 146/75/21 144/76/21
f 148/77/22 151/78/22 150/79/22
f 152/80/23 155/81/23 154/82/23
f 157/83/24 158/84/24 156/85/24
f 161/86/25 162/87/25 160/88/25
f 165/89/26 166/90/26 164/91/26
f 168/92/27 171/93/27 170/94/27
f 172/95/28 175/96/28 174/97/28
f 176/98/29 179/99/29 178/100/29
f 69/17/2 71/101/2 70/18/2
f 73/20/3 75/102/3 74/21/3
f 77/23/4 79/103/4 78/24/4
f 81/26/5 83/104/5 82/27/5
f 84/29/30 85/105/30 87/30/30
f 89/32/7 91/106/7 90/33/7
f 92/35/8 93/107/8 95/36/8
f 97/38/9 99/108/9 98/39/9
f 101/41/10 103/109/10 102/42/10
f 104/44/11 105/110/11 107/45/11
f 109/47/12 111/111/12 110/48/12
f 112/50/13 113/112/13 115/51/13
f 117/53/14 119/113/14 118/54/14
f 120/56/15 121/114/15 123/57/15
f 125/59/16 127/115/16 126/60/16
f 129/62/17 131/116/17 130/63/17
f 133/65/18 135/117/18 134/66/18
f 136/68/19 137/118/19 139/69/19
f 141/71/20 143/119/20 142/72/20
f 145/74/21 147/120/21 146/75/21
f 148/77/22 149/121/22 151/78/22
f 152/80/23 153/122/23 155/81/23
f 157/83/24 159/123/24 158/84/24
f 161/86/25 163/124/25 162/87/25
f 165/89/26 167/125/26 166/90/26
f 168/92/27 169/126/27 171/93/27
f 172/95/28 173/127/28 175/96/28
f 176/98/29 177/128/29 179/99/29
usemtl None_Log_end.png.001
s 1
f 4/7/1 5/14/1 6/129/1
f 18/130/31 19/131/31 20/132/31
f 23/133/31 26/134/31 27/135/31
f 6/129/1 36/136/1 37/1/1
f 39/3/1 40/137/1 41/138/1
f 41/138/1 42/139/1 39/3/1
f 43/140/1 44/141/1 45/6/1
f 45/6/1 48/142/1 49/143/1
f 49/143/1 50/144/1 4/7/1
f 54/11/1 55/145/1 5/14/1
f 59/16/1 60/146/1 5/14/1
f 61/147/1 62/148/1 63/149/1
f 63/149/1 64/150/1 6/129/1
f 6/129/1 37/1/1 39/3/1
f 39/3/1 42/139/1 43/140/1
f 44/141/1 46/4/1 45/6/1
f 45/6/1 49/143/1 43/140/1
f 4/7/1 52/9/1 5/14/1
f 55/145/1 56/12/1 5/14/1
f 5/14/1 60/146/1 61/147/1
f 61/147/1 63/149/1 5/14/1
f 6/129/1 39/3/1 4/7/1
f 43/140/1 49/143/1 4/7/1
f 52/9/1 54/11/1 5/14/1
f 5/14/1 63/149/1 6/129/1
f 39/3/1 43/140/1 4/7/1
usemtl None_Log_upwards.jpg
f 65/151/32 7/152/32 37/153/32
f 7/154/33 38/155/33 37/156/33
f 3/157/34 39/158/34 38/159/34
f 35/160/35 40/161/35 39/162/35
f 34/163/36 41/164/36 40/165/36
f 33/166/37 42/167/37 41/168/37
f 32/169/38 43/170/38 42/171/38
f 31/172/39 44/173/39 43/174/39
f 30/175/40 46/176/40 44/177/40
f 29/178/41 47/179/41 46/180/41
f 2/181/42 45/182/42 47/183/42
f 28/184/43 48/185/43 45/186/43
f 27/187/44 49/188/44 48/189/44
f 26/190/45 50/191/45 49/192/45
f 23/193/46 4/194/46 50/195/46
f 25/196/47 51/197/47 4/198/47
f 24/199/48 52/200/48 51/201/48
f 22/202/49 53/203/49 52/204/49
f 1/205/50 54/206/50 53/207/50
f 21/208/51 55/209/51 54/210/51
f 20/211/52 56/212/52 55/213/52
f 19/214/53 57/215/53 56/216/53
f 18/217/54 5/218/54 57/219/54
f 17/220/55 58/221/55 5/222/55
f 16/223/56 59/224/56 58/225/56
f 15/226/57 60/227/57 59/228/57
f 12/229/58 61/230/58 60/231/58
f 14/232/59 62/233/59 61/234/59
f 13/235/60 63/236/60 62/237/60
f 11/238/61 64/239/61 63/240/61
f 8/241/62 6/242/62 64/243/62
f 10/244/63 65/245/63 6/246/63
f 37/153/32 36/247/32 66/248/32
f 65/151/32 67/249/32 7/152/32
f 37/153/32 66/248/32 65/151/32
f 9/250/32 7/152/32 67/249/32
f 7/154/33 3/251/33 38/155/33
f 3/157/34 35/252/34 39/158/34
f 35/160/35 34/253/35 40/161/35
f 34/163/36 33/254/36 41/164/36
f 33/166/37 32/255/37 42/167/37
f 32/169/38 31/256/38 43/170/38
f 31/172/39 30/257/39 44/173/39
f 30/175/40 29/258/40 46/176/40
f 29/178/41 2/259/41 47/179/41
f 2/181/42 28/260/42 45/182/42
f 28/184/43 27/261/43 48/185/43
f 27/187/44 26/262/44 49/188/44
f 26/190/45 23/263/45 50/191/45
f 23/193/46 25/264/46 4/194/46
f 25/196/47 24/265/47 51/197/47
f 24/199/48 22/266/48 52/200/48
f 22/202/49 1/267/49 53/203/49
f 1/205/50 21/268/50 54/206/50
f 21/208/51 20/269/51 55/209/51
f 20/211/52 19/270/52 56/212/52
f 19/214/53 18/271/53 57/215/53
f 18/217/54 17/272/54 5/218/54
f 17/220/55 16/273/55 58/221/55
f 16/223/56 15/274/56 59/224/56
f 15/226/57 12/275/57 60/227/57
f 12/229/58 14/276/58 61/230/58
f 14/232/59 13/277/59 62/233/59
f 13/235/60 11/278/60 63/236/60
f 11/238/61 8/279/61 64/239/61
f 8/241/62 10/280/62 6/242/62
f 36/281/63 6/246/63 66/282/63
f 10/244/63 9/283/63 67/284/63
f 65/245/63 66/282/63 6/246/63
f 10/244/63 67/284/63 65/245/63
usemtl None_Log_upwards.jpg_Log_end.png.001
f 17/285/31 23/286/31 10/287/31
f 35/288/31 3/289/31 7/290/31
f 7/290/31 9/291/31 35/288/31
f 10/287/31 8/292/31 11/293/31
f 11/293/31 13/294/31 14/295/31
f 14/295/31 12/296/31 17/285/31
f 15/297/31 16/298/31 17/285/31
f 17/285/31 18/299/31 20/300/31
f 20/300/31 21/301/31 1/302/31
f 1/302/31 22/303/31 24/304/31
f 24/304/31 25/305/31 23/286/31
f 23/286/31 27/306/31 28/307/31
f 28/307/31 2/308/31 29/309/31
f 29/309/31 30/310/31 33/311/31
f 31/312/31 32/313/31 33/311/31
f 33/311/31 34/314/31 35/288/31
f 35/288/31 9/291/31 10/287/31
f 10/287/31 11/293/31 17/285/31
f 12/296/31 15/297/31 17/285/31
f 17/285/31 20/300/31 23/286/31
f 1/302/31 24/304/31 23/286/31
f 23/286/31 28/307/31 33/311/31
f 30/310/31 31/312/31 33/311/31
f 33/311/31 35/288/31 10/287/31
f 11/293/31 14/295/31 17/285/31
f 20/300/31 1/302/31 23/286/31
f 28/307/31 29/309/31 33/311/31
f 33/311/31 10/287/31 23/286/31
